<!-- icon666.com - MILLIONS vector ICONS FREE --><svg version="1.1" id="Capa_1" xmlns="http://www.w3.org/2000/svg" xmlns:xlink="http://www.w3.org/1999/xlink" x="0px" y="0px" viewBox="0 0 477.628 477.628" style="enable-background:new 0 0 477.628 477.628;" xml:space="preserve"><g><path style="fill:#78B9EB;" d="M272.752,325.8c1.912-1.464,3.872-2.816,5.88-4.08C276.624,322.976,274.664,324.344,272.752,325.8z"></path><path style="fill:#78B9EB;" d="M242.896,373.096c0.344-1.6,0.752-3.264,1.192-4.888 C243.648,369.832,243.232,371.456,242.896,373.096z"></path><path style="fill:#78B9EB;" d="M244.592,366.304c0.688-2.296,1.472-4.56,2.4-6.792C246.064,361.744,245.28,364,244.592,366.304z"></path><path style="fill:#78B9EB;" d="M279.944,320.864c2.2-1.32,4.456-2.488,6.744-3.576C284.384,318.4,282.144,319.552,279.944,320.864z "></path><path style="fill:#78B9EB;" d="M250.936,351.2c0.896-1.653,1.859-3.283,2.888-4.888C252.795,347.901,251.832,349.531,250.936,351.2 z"></path><path style="fill:#78B9EB;" d="M254.856,344.72c1.163-1.723,2.397-3.405,3.704-5.048 C257.248,341.32,256.014,343.003,254.856,344.72z"></path><path style="fill:#78B9EB;" d="M297.576,313.04c2.048-0.632,4.128-1.16,6.216-1.6C301.704,311.872,299.624,312.416,297.576,313.04z "></path><path style="fill:#78B9EB;" d="M247.424,358.472c0.8-1.904,1.656-3.776,2.608-5.6C249.088,354.707,248.219,356.573,247.424,358.472 z"></path><path style="fill:#78B9EB;" d="M271.136,327.056c-2.304,1.817-4.505,3.762-6.592,5.824c-1.856,1.856-3.568,3.808-5.208,5.792 c1.648-2,3.392-3.952,5.264-5.816C266.673,330.806,268.854,328.87,271.136,327.056z"></path><path style="fill:#78B9EB;" d="M289.816,315.904c1.36-0.576,2.728-1.096,4.112-1.6 C292.547,314.805,291.176,315.339,289.816,315.904z"></path></g><g><path style="fill:#FF9275;" d="M151.584,152l-24-24l-21.44-21.44c-37.489,37.448-37.523,98.196-0.075,135.685 c0.025,0.025,0.05,0.05,0.075,0.075l33.6,33.6l67.84,67.84l34.4,34.4c0.104-0.728,0.272-1.448,0.392-2.176 c0.168-0.968,0.32-1.928,0.52-2.888c0.336-1.6,0.752-3.264,1.192-4.888c0.176-0.632,0.312-1.272,0.504-1.904 c0.688-2.296,1.472-4.56,2.4-6.792c0.144-0.352,0.32-0.696,0.464-1.04c0.795-1.904,1.664-3.771,2.608-5.6 c0.288-0.56,0.6-1.104,0.904-1.664c0.896-1.653,1.859-3.283,2.888-4.888c0.336-0.528,0.68-1.056,1.032-1.6 c1.163-1.723,2.397-3.405,3.704-5.048c0.264-0.328,0.504-0.672,0.8-1c1.6-1.984,3.352-3.936,5.208-5.792 c2.087-2.062,4.288-4.007,6.592-5.824c0.536-0.432,1.072-0.848,1.6-1.256c1.912-1.456,3.872-2.824,5.88-4.08 c0.44-0.28,0.864-0.584,1.312-0.856c2.2-1.312,4.456-2.488,6.744-3.576c1.032-0.496,2.08-0.936,3.128-1.384 c1.36-0.565,2.731-1.099,4.112-1.6c1.216-0.44,2.4-0.896,3.648-1.272c2.048-0.624,4.128-1.168,6.216-1.6 c1.56-0.344,3.12-0.592,4.696-0.8c0.472-0.08,0.944-0.192,1.416-0.256l-34.4-34.4L207.584,208L151.584,152z M223.584,280 c0,8.837-7.163,16-16,16s-16-7.163-16-16s7.163-16,16-16S223.584,271.163,223.584,280z"></path><path style="fill:#FF9275;" d="M105.304,310.28c33.371,4.654,60.195,29.818,66.968,62.824c0.344,1.68,0.672,3.36,0.912,5.056 l34.4-34.4l-67.84-67.84L105.304,310.28z"></path><path style="fill:#FF9275;" d="M207.584,208l67.92,67.92l33.52-33.6c23.662-23.604,33.304-57.837,25.44-90.32h-70.88L207.584,208z"></path></g><path style="fill:#FBB040;" d="M105.264,310.32v-0.04c-43.742-6.228-84.25,24.184-90.477,67.925s24.184,84.25,67.925,90.477 s84.25-24.184,90.477-67.925c1.067-7.492,1.065-15.098-0.005-22.589c-0.24-1.696-0.568-3.384-0.912-5.064 C165.497,340.091,138.648,314.935,105.264,310.32z M141.904,392c-0.572,11.815-5.537,22.991-13.92,31.336 c-18.897,18.592-49.288,18.344-67.88-0.553c-18.378-18.68-18.378-48.647,0-67.327c18.696-18.744,49.047-18.784,67.792-0.088 C137.575,365.023,142.672,378.351,141.904,392z"></path><g><path style="fill:#78B9EB;" d="M105.304,310.28v0.04c33.383,4.615,60.233,29.771,67.008,62.784 c-6.773-33.006-33.597-58.17-66.968-62.824H105.304z"></path><circle style="fill:#78B9EB;" cx="207.584" cy="280" r="16"></circle></g><path style="fill:#FCCE88;" d="M415.584,8h-288v120l24,24h264l48-40V48L415.584,8z M423.584,96c-8.837,0-16-7.163-16-16 s7.163-16,16-16s16,7.163,16,16S432.421,96,423.584,96z"></path><path style="fill:#FBB040;" d="M297.576,313.04c-1.232,0.376-2.4,0.8-3.648,1.272c-1.384,0.496-2.752,1.016-4.112,1.6 c-1.048,0.448-2.096,0.896-3.128,1.384c-2.288,1.088-4.544,2.256-6.744,3.576c-0.448,0.264-0.872,0.584-1.312,0.856 c-2.008,1.264-4,2.616-5.88,4.08c-0.544,0.408-1.08,0.8-1.6,1.256c-2.282,1.814-4.464,3.75-6.536,5.8 c-1.872,1.864-3.616,3.816-5.264,5.816c-0.272,0.328-0.512,0.672-0.8,1c-1.312,1.648-2.547,3.331-3.704,5.048 c-0.352,0.52-0.696,1.048-1.032,1.6c-1.035,1.6-1.997,3.229-2.888,4.888c-0.304,0.56-0.616,1.104-0.904,1.664 c-0.952,1.848-1.808,3.72-2.608,5.6c-0.144,0.344-0.32,0.688-0.464,1.04c-0.896,2.232-1.68,4.496-2.4,6.792 c-0.192,0.632-0.328,1.272-0.504,1.904c-0.44,1.6-0.848,3.248-1.192,4.888c-0.2,0.96-0.36,1.92-0.52,2.888 c-7.62,43.664,21.6,85.238,65.265,92.858s85.238-21.6,92.858-65.265s-21.6-85.238-65.265-92.858 c-8.844-1.543-17.885-1.592-26.746-0.143c-1.6,0.248-3.144,0.504-4.696,0.8C301.704,311.88,299.624,312.408,297.576,313.04z M355.104,355.48c18.906,18.728,19.05,49.236,0.322,68.142c-18.728,18.906-49.236,19.05-68.142,0.322 c-18.906-18.728-19.05-49.236-0.322-68.142c8.408-8.488,19.669-13.549,31.598-14.202 C332.168,340.776,345.475,345.831,355.104,355.48z"></path><g><path style="fill:#78B9EB;" d="M308.488,310.576c-1.6,0.248-3.136,0.496-4.696,0.8C305.344,311.08,306.92,310.824,308.488,310.576z "></path><path style="fill:#78B9EB;" d="M253.824,346.296c0.336-0.528,0.68-1.056,1.032-1.6C254.504,345.24,254.16,345.768,253.824,346.296z "></path><path style="fill:#78B9EB;" d="M250.032,352.848c0.288-0.56,0.6-1.104,0.904-1.664C250.632,351.744,250.32,352.288,250.032,352.848 z"></path><path style="fill:#78B9EB;" d="M242.376,376c0.16-0.968,0.32-1.928,0.52-2.888C242.696,374.056,242.544,375.016,242.376,376z"></path><path style="fill:#78B9EB;" d="M244.088,368.208c0.176-0.632,0.312-1.272,0.504-1.904 C244.384,366.936,244.264,367.576,244.088,368.208z"></path><path style="fill:#78B9EB;" d="M246.96,359.512c0.144-0.352,0.32-0.696,0.464-1.04C247.28,358.816,247.104,359.2,246.96,359.512z"></path><path style="fill:#78B9EB;" d="M271.136,327.056c0.536-0.432,1.072-0.848,1.6-1.256 C272.208,326.208,271.672,326.624,271.136,327.056z"></path><path style="fill:#78B9EB;" d="M258.56,339.672c0.264-0.328,0.504-0.672,0.8-1C259.064,339,258.824,339.344,258.56,339.672z"></path><path style="fill:#78B9EB;" d="M286.688,317.288c1.032-0.488,2.08-0.936,3.128-1.384C288.768,316.352,287.72,316.8,286.688,317.288 z"></path><path style="fill:#78B9EB;" d="M278.632,321.72c0.44-0.272,0.864-0.592,1.312-0.856C279.496,321.136,279.072,321.44,278.632,321.72 z"></path><path style="fill:#78B9EB;" d="M293.928,314.312c1.208-0.44,2.4-0.896,3.648-1.272 C296.384,313.416,295.144,313.872,293.928,314.312z"></path></g><g><path style="fill:#353535;" d="M91.048,333.6c-30.76,1.739-54.285,28.084-52.546,58.844c1.739,30.76,28.084,54.285,58.844,52.546 s54.285-28.084,52.546-58.844c-0.774-13.685-6.559-26.607-16.252-36.298C122.425,338.583,106.917,332.667,91.048,333.6z M133.912,391.656c-0.486,9.828-4.616,19.123-11.584,26.072c-15.581,15.661-40.908,15.725-56.568,0.144 c-15.661-15.581-15.725-40.908-0.144-56.568c7.009-7.044,16.388-11.228,26.312-11.736c0.8,0,1.6-0.064,2.36-0.064 c21.976,0.05,39.752,17.905,39.702,39.882c-0.002,0.757-0.025,1.514-0.07,2.27H133.912z"></path><path style="fill:#353535;" d="M207.584,304c13.255,0,24-10.745,24-24s-10.745-24-24-24s-24,10.745-24,24S194.329,304,207.584,304z M207.584,272c4.418,0,8,3.582,8,8s-3.582,8-8,8s-8-3.582-8-8S203.166,272,207.584,272z"></path><path style="fill:#353535;" d="M399.584,80c0,13.255,10.745,24,24,24s24-10.745,24-24s-10.745-24-24-24S399.584,66.745,399.584,80z M423.584,72c4.418,0,8,3.582,8,8s-3.582,8-8,8s-8-3.582-8-8S419.166,72,423.584,72z"></path><path style="fill:#353535;" d="M167.584,56v16c0,8.837,7.163,16,16,16h8v16h-24v16h24c8.837,0,16-7.163,16-16V88 c0-8.837-7.163-16-16-16h-8V56h24V40h-24C174.748,40,167.584,47.163,167.584,56z"></path><path style="fill:#353535;" d="M303.584,40h-16v72c0,4.418,3.582,8,8,8h24v-16h-16V40z"></path><path style="fill:#353535;" d="M335.584,48v64c0,4.418,3.582,8,8,8h32v-16h-24V88h24V72h-24V56h24V40h-32 C339.166,40,335.584,43.582,335.584,48z"></path><path style="fill:#353535;" d="M468.704,41.856l-48-40c-1.437-1.198-3.249-1.855-5.12-1.856h-288c-4.418,0-8,3.582-8,8l0,0v100.688 l-7.784-7.784c-3.124-3.123-8.188-3.123-11.312,0c-40.553,40.638-40.553,106.434,0,147.072l27.936,27.936l-26.152,26.096 c-26.081-2.647-51.966,6.608-70.456,25.192c-34.365,34.368-34.364,90.087,0.004,124.452s90.087,34.364,124.452-0.004 c18.585-18.486,27.841-44.369,25.192-70.448l26.12-26.128l26,26c-0.256,2.76-0.408,5.544-0.408,8.352 c-0.086,48.628,39.265,88.117,87.892,88.203s88.117-39.265,88.203-87.892c0.078-43.921-32.224-81.181-75.712-87.335 c-6.888-0.992-13.87-1.172-20.8-0.536l-25.976-25.952L314.68,248c23.18-23.02,34.053-55.679,29.296-88h71.608 c1.871-0.001,3.683-0.658,5.12-1.856l48-40c1.824-1.519,2.879-3.77,2.88-6.144V48C471.583,45.626,470.528,43.375,468.704,41.856 L468.704,41.856z M170.896,160h73.376l-36.688,36.688L170.896,160z M144.96,440.336c-28.081,28.154-73.669,28.213-101.823,0.132 s-28.213-73.669-0.132-101.823c15.974-16.015,38.545-23.593,60.947-20.461c0.072,0,0.136,0.048,0.208,0.056 c27.255,3.761,49.934,22.828,58.32,49.032c0.064,0.216,0.184,0.416,0.256,0.64c0.152,0.504,0.2,1.056,0.344,1.6 c0.961,3.218,1.691,6.501,2.184,9.824C168.574,401.741,161.037,424.384,144.96,440.336L144.96,440.336z M177.76,362.288 c-0.104-0.304-0.248-0.584-0.352-0.888c-0.856-2.584-1.848-5.112-2.936-7.6c-0.296-0.656-0.584-1.32-0.888-1.976 c-1.304-2.805-2.759-5.537-4.36-8.184l-0.248-0.376c-1.571-2.531-3.275-4.977-5.104-7.328c-0.416-0.544-0.8-1.08-1.264-1.6 c-1.979-2.486-4.089-4.865-6.32-7.128c-2.282-2.263-4.685-4.399-7.2-6.4c-0.464-0.376-0.936-0.744-1.408-1.104 c-5.081-3.926-10.581-7.277-16.4-9.992l-1.088-0.488c-2.94-1.335-5.952-2.502-9.024-3.496l18.568-18.528l56.536,56.528 L177.76,362.288z M331.36,318.2c39.368,5.598,66.745,42.051,61.147,81.419c-5.598,39.368-42.051,66.745-81.419,61.147 c-35.523-5.051-61.905-35.486-61.864-71.366c0.097-7.237,1.173-14.428,3.2-21.376c0.064-0.192,0.152-0.384,0.208-0.576 c0.992-3.065,2.192-6.059,3.592-8.96c0.312-0.656,0.6-1.328,0.936-1.976c1.465-2.846,3.122-5.588,4.96-8.208 c0.496-0.712,1.032-1.408,1.6-2.104c1.87-2.515,3.904-4.904,6.088-7.152c0.176-0.184,0.328-0.384,0.512-0.568 s0.232-0.2,0.344-0.312c2.363-2.303,4.881-4.441,7.536-6.4c0.552-0.416,1.096-0.8,1.656-1.232c2.842-2.017,5.829-3.821,8.936-5.4 l0.52-0.24c6.852-3.368,14.198-5.62,21.76-6.672c0.08,0,0.152-0.048,0.232-0.064c3.18-0.453,6.388-0.693,9.6-0.72 c3.483,0.01,6.961,0.264,10.408,0.76H331.36z M268.016,319.392c-3.201,2.402-6.234,5.019-9.08,7.832 c-0.536,0.528-0.968,1.128-1.488,1.672c-1.656,1.744-3.272,3.512-4.8,5.36c-0.88,1.088-1.664,2.224-2.488,3.352 c-1.072,1.464-2.12,2.928-3.096,4.448c-0.8,1.192-1.48,2.4-2.184,3.64c-0.928,1.6-1.792,3.2-2.608,4.904 c-0.568,1.152-1.136,2.304-1.648,3.488c-0.904,2.048-1.696,4.144-2.4,6.256c-0.224,0.664-0.536,1.28-0.752,1.944l-125.6-125.6 c-32.203-32.16-34.548-83.577-5.408-118.536l187.52,187.536c-9.388,3.056-18.186,7.69-26.016,13.704L268.016,319.392z M303.416,236.664l-27.864,27.928L218.896,208l48-48h61.048c4.801,28.033-4.372,56.646-24.576,76.664L303.416,236.664z M455.584,108.256L412.688,144H154.896l-19.312-19.312V16h277.104l42.896,35.744V108.256z"></path><path style="fill:#353535;" d="M263.584,40h-32c-4.418,0-8,3.582-8,8v72h16V88h16v32h16V48C271.584,43.582,268.002,40,263.584,40z M239.584,56h16v16h-16V56z"></path><path style="fill:#353535;" d="M281.568,349.824c-21.87,21.87-21.87,57.33,0,79.2c21.87,21.87,57.329,21.87,79.2,0 s21.87-57.33,0-79.2S303.439,327.953,281.568,349.824L281.568,349.824L281.568,349.824z M321.416,349.48 c22.591-0.014,40.916,18.287,40.93,40.878c0.014,22.591-18.287,40.916-40.878,40.93c-22.591,0.014-40.916-18.287-40.93-40.878 c-0.014-21.658,16.858-39.573,38.478-40.858C319.84,349.504,320.624,349.48,321.416,349.48z"></path></g></svg>