<svg xmlns="http://www.w3.org/2000/svg" enable-background="new 0 0 24 24" viewBox="0 0 24 24"><path fill="#110638" d="M11.859,23.25c-1.546,0-2.473-0.643-3.291-1.21c-0.713-0.494-1.329-0.921-2.302-0.921c-0.435,0-0.805,0.063-1.132,0.118c-0.27,0.045-0.501,0.081-0.693,0.081c-0.954,0-1.106-0.852-1.188-1.31c-0.013-0.074-0.026-0.15-0.042-0.218c-1.3-0.221-2.73-0.603-3.113-1.495c-0.139-0.323-0.127-0.674,0.032-0.964c0.153-0.28,0.424-0.47,0.741-0.521c2.521-0.415,3.805-2.77,4.137-3.481c0.123-0.25,0.137-0.371,0.117-0.417c-0.075-0.176-0.692-0.372-0.926-0.445c-1.863-0.584-1.925-1.558-1.865-1.95c0.107-0.701,0.832-1.25,1.65-1.25c0.291,0,0.555,0.105,0.809,0.206c0.188,0.075,0.341,0.133,0.476,0.156L5.268,9.606c-0.05-0.763-0.096-1.484-0.096-2.152c0-5.312,4.291-6.729,6.827-6.729c3.286,0,6.822,2.111,6.822,6.747c0,0.734-0.049,1.468-0.091,2.116l-0.001,0.007c0.103-0.027,0.222-0.072,0.358-0.125c0.256-0.099,0.546-0.212,0.854-0.212c0.958,0,1.738,0.656,1.738,1.462c0,1.063-1.07,1.446-1.851,1.727c-0.36,0.129-0.964,0.346-0.964,0.51c0.064,0.348,1.346,3.376,4.265,3.855c0.504,0.082,0.87,0.51,0.87,1.019c0,0.952-1.021,1.577-3.21,1.958c-0.014,0.064-0.027,0.134-0.04,0.204c-0.087,0.465-0.278,1.374-1.228,1.314c-0.313-0.02-0.563-0.063-0.812-0.105c-0.302-0.053-0.587-0.102-1.007-0.102c-0.921,0-1.368,0.314-2.044,0.789C14.005,23.05,13.232,23.25,11.859,23.25z M6.267,20.118c1.286,0,2.092,0.559,2.872,1.1c0.765,0.53,1.487,1.032,2.721,1.032c1.121,0,1.685-0.099,3.172-1.142c0.763-0.537,1.435-1.01,2.673-1.01c0.506,0,0.848,0.059,1.178,0.117c0.211,0.037,0.422,0.074,0.686,0.092c0.034-0.001,0.052-0.007,0.056-0.009c0.061-0.047,0.117-0.347,0.145-0.491c0.044-0.233,0.089-0.475,0.201-0.693c0.073-0.142,0.209-0.24,0.367-0.265C22.438,18.52,23,18.053,23,17.83c-3.6-0.618-5.135-4.325-5.135-4.874c0-0.868,0.901-1.191,1.626-1.451c0.696-0.25,1.188-0.452,1.188-0.786c0-0.214-0.322-0.462-0.738-0.462c-0.12,0-0.309,0.073-0.492,0.144c-0.386,0.15-0.916,0.355-1.458,0.108c-0.188-0.085-0.304-0.278-0.291-0.484l0.032-0.503c0.042-0.633,0.089-1.35,0.089-2.05c0-4.537-3.66-5.747-5.822-5.747c-0.597,0-5.827,0.161-5.827,5.729c0,0.635,0.045,1.341,0.094,2.088l0.03,0.482c0.013,0.21-0.106,0.405-0.3,0.489c-0.611,0.268-1.168,0.048-1.572-0.113c-0.167-0.066-0.34-0.135-0.439-0.135c-0.344,0-0.633,0.212-0.662,0.401c-0.033,0.218,0.321,0.576,1.178,0.845c0.681,0.215,1.31,0.454,1.545,1.007c0.148,0.349,0.11,0.742-0.116,1.202c-0.4,0.854-1.891,3.581-4.896,4.075c0,0-0.017,0.102-0.016,0.103c0.074,0.173,0.481,0.614,2.646,0.951c0.154,0.024,0.289,0.12,0.363,0.258c0.122,0.228,0.167,0.48,0.211,0.724c0.027,0.149,0.077,0.428,0.135,0.478c0.217,0.003,0.391-0.025,0.597-0.06C5.316,20.191,5.749,20.118,6.267,20.118z"/></svg>