<!-- icon666.com - MILLIONS vector ICONS FREE --><svg viewBox="-10 0 412 412.77" xmlns="http://www.w3.org/2000/svg"><path d="m249.316406 21.074219c-6.554687.199219-11.609375 5.917969-11.609375 12.476562v6.644531h-93.503906v368.515626h77.90625l-13.03125-270.957032c-.65625-13.625 6.097656-26.542968 17.664063-33.777344l17.210937-10.761718c11.019531-6.894532 17.710937-18.972656 17.710937-31.96875v-28.199219c0-6.734375-5.5625-12.175781-12.347656-11.972656zm0 0" fill="#fce8cb"></path><path d="m260.113281 22.296875c-2.929687-2.84375-6.777343-4.332031-10.882812-4.21875-8.007813.238281-14.519531 7.183594-14.519531 15.472656v3.648438h-90.507813c-1.65625 0-3 1.339843-3 3v368.515625c0 1.65625 1.34375 3 3 3 1.660156 0 3-1.34375 3-3v-365.519532h90.507813c1.652343 0 3-1.339843 3-3v-6.644531c0-5.082031 3.898437-9.332031 8.699218-9.476562 2.484375-.097657 4.773438.824219 6.527344 2.527343 1.757812 1.707032 2.726562 3.996094 2.726562 6.445313v28.203125c0 12.039062-6.09375 23.039062-16.300781 29.421875l-17.207031 10.761719c-12.46875 7.796875-19.777344 21.773437-19.074219 36.464844l13.035157 270.957031c.074218 1.605469 1.402343 2.855469 2.992187 2.855469.050781 0 .101563 0 .148437-.003907 1.652344-.078125 2.929688-1.484375 2.851563-3.140625l-13.035156-270.953125c-.601563-12.527343 5.628906-24.441406 16.265625-31.089843l17.207031-10.765626c11.96875-7.488281 19.117187-20.386718 19.117187-34.507812v-28.199219c0-4.089843-1.613281-7.90625-4.550781-10.753906zm0 0" fill="#3a312a"></path><path d="m376.96875 143.320312c-6.558594.199219-11.613281 5.917969-11.613281 12.476563v6.644531h-93.5v247.328125h72.074219l-7.199219-149.765625c-.65625-13.628906 6.097656-26.542968 17.664062-33.777344l17.210938-10.765624c11.015625-6.890626 17.710937-18.96875 17.710937-31.964844v-28.203125c-.003906-6.738281-5.566406-12.175781-12.347656-11.972657zm0 0" fill="#fce8cb"></path><path d="m387.765625 144.542969c-2.929687-2.84375-6.773437-4.335938-10.886719-4.222657-8.007812.242188-14.523437 7.183594-14.523437 15.476563v3.644531h-90.5c-1.65625 0-3 1.34375-3 3v247.328125c0 1.660157 1.34375 3 3 3s3-1.339843 3-3v-244.328125h90.5c1.65625 0 3-1.34375 3-3v-6.648437c0-5.082031 3.902343-9.332031 8.703125-9.476563 2.425781-.085937 4.769531.824219 6.527344 2.53125 1.757812 1.707032 2.726562 3.996094 2.726562 6.445313v28.199219c0 12.042968-6.09375 23.039062-16.300781 29.421874l-17.207031 10.765626c-12.46875 7.800781-19.78125 21.773437-19.070313 36.464843l7.203125 149.765625c.074219 1.605469 1.402344 2.855469 2.992188 2.855469.050781 0 .097656 0 .148437-.003906 1.652344-.078125 2.929687-1.484375 2.851563-3.140625l-7.203126-149.765625c-.605468-12.527344 5.625-24.4375 16.261719-31.085938l17.207031-10.765625c11.972657-7.488281 19.121094-20.386718 19.121094-34.507812v-28.203125c-.003906-4.085938-1.621094-7.902344-4.550781-10.75zm0 0" fill="#3a312a"></path><path d="m281.589844 125.242188h-.15625c-6.574219 0-11.902344 5.328124-11.902344 11.902343v40.910157c0 6.574218 5.328125 11.902343 11.902344 11.902343h.15625c6.574218 0 11.902344-5.328125 11.902344-11.902343v-40.910157c-.003907-6.574219-5.328126-11.902343-11.902344-11.902343zm0 0" fill="#fce8cb"></path><path d="m281.433594 122.242188c-8.214844 0-14.898438 6.6875-14.898438 14.902343v40.910157c0 8.21875 6.683594 14.902343 14.898438 14.902343h.15625c8.214844 0 14.898437-6.683593 14.898437-14.902343v-40.910157c0-8.214843-6.683593-14.902343-15.054687-14.902343zm9.054687 55.8125c0 4.910156-3.992187 8.902343-8.898437 8.902343h-.15625c-4.90625 0-8.898438-3.992187-8.898438-8.902343v-40.910157c0-4.910156 3.992188-8.902343 9.054688-8.902343 4.90625 0 8.898437 3.992187 8.898437 8.902343zm0 0" fill="#3a312a"></path><path d="m305.546875 125.242188h-.15625c-6.574219 0-11.902344 5.328124-11.902344 11.902343v40.910157c0 6.574218 5.328125 11.902343 11.902344 11.902343h.15625c6.570313 0 11.898437-5.328125 11.898437-11.902343v-40.910157c0-6.574219-5.328124-11.902343-11.898437-11.902343zm0 0" fill="#fce8cb"></path><path d="m305.386719 122.242188c-8.214844 0-14.898438 6.6875-14.898438 14.902343v40.910157c0 8.21875 6.683594 14.902343 14.898438 14.902343h.160156c8.210937 0 14.894531-6.683593 14.894531-14.902343v-40.910157c.003906-8.214843-6.679687-14.902343-15.054687-14.902343zm9.058593 55.8125c0 4.910156-3.992187 8.902343-8.898437 8.902343h-.15625c-4.90625 0-8.898437-3.992187-8.898437-8.902343v-40.910157c0-4.910156 3.992187-8.902343 9.054687-8.902343 4.90625 0 8.898437 3.992187 8.898437 8.902343zm0 0" fill="#3a312a"></path><path d="m329.5 125.242188h-.15625c-6.574219 0-11.902344 5.328124-11.902344 11.902343v40.910157c0 6.574218 5.328125 11.902343 11.902344 11.902343h.15625c6.574219 0 11.902344-5.328125 11.902344-11.902343v-40.910157c0-6.574219-5.328125-11.902343-11.902344-11.902343zm0 0" fill="#fce8cb"></path><path d="m329.34375 122.242188c-8.214844 0-14.898438 6.6875-14.898438 14.902343v40.910157c0 8.21875 6.683594 14.902343 14.898438 14.902343h.15625c8.21875 0 14.902344-6.683593 14.902344-14.902343v-40.910157c0-8.214843-6.683594-14.902343-15.058594-14.902343zm9.058594 55.8125c0 4.910156-3.992188 8.902343-8.902344 8.902343h-.15625c-4.90625 0-8.898438-3.992187-8.898438-8.902343v-40.910157c0-4.910156 3.992188-8.902343 9.054688-8.902343 4.910156 0 8.902344 3.992187 8.902344 8.902343zm0 0" fill="#3a312a"></path><path d="m353.457031 125.242188h-.15625c-6.574219 0-11.902343 5.328124-11.902343 11.902343v40.910157c0 6.574218 5.328124 11.902343 11.902343 11.902343h.15625c6.570313 0 11.898438-5.328125 11.898438-11.902343v-40.910157c0-6.574219-5.328125-11.902343-11.898438-11.902343zm0 0" fill="#fce8cb"></path><path d="m353.300781 122.242188c-8.214843 0-14.898437 6.6875-14.898437 14.902343v40.910157c0 8.21875 6.683594 14.902343 14.898437 14.902343h.160157c8.210937 0 14.894531-6.683593 14.894531-14.902343v-40.910157c0-8.214843-6.683594-14.902343-15.054688-14.902343zm9.054688 55.8125c0 4.910156-3.992188 8.902343-8.894531 8.902343h-.160157c-4.90625 0-8.898437-3.992187-8.898437-8.902343v-40.910157c0-4.910156 3.992187-8.902343 9.058594-8.902343 4.902343 0 8.894531 3.992187 8.894531 8.902343zm0 0" fill="#3a312a"></path><path d="m110.816406 143.320312c-6.554687.199219-11.609375 5.917969-11.609375 12.476563v6.644531l-93.503906 11.996094v235.332031h72.078125l-7.203125-149.765625c-.65625-13.628906 6.101563-26.542968 17.667969-33.777344l17.207031-10.765624c11.019531-6.890626 17.710937-18.96875 17.710937-31.964844v-28.203125c0-6.738281-5.5625-12.175781-12.347656-11.972657zm0 0" fill="#fce8cb"></path><path d="m121.617188 144.542969c-2.933594-2.84375-6.8125-4.332031-10.886719-4.222657-8.007813.242188-14.519531 7.183594-14.519531 15.476563v4.003906l-90.886719 11.660157c-1.496094.191406-2.617188 1.464843-2.617188 2.976562v235.332031c0 1.660157 1.34375 3 3 3s3-1.339843 3-3v-232.695312l90.882813-11.660157c1.496094-.191406 2.621094-1.464843 2.621094-2.972656v-6.648437c0-5.082031 3.898437-9.332031 8.699218-9.476563 2.441406-.078125 4.773438.828125 6.527344 2.53125 1.757812 1.707032 2.726562 3.996094 2.726562 6.445313v28.199219c0 12.042968-6.09375 23.039062-16.300781 29.421874l-17.207031 10.765626c-12.472656 7.800781-19.777344 21.773437-19.074219 36.464843l7.203125 149.765625c.078125 1.605469 1.40625 2.855469 2.996094 2.855469.046875 0 .097656 0 .144531-.003906 1.65625-.078125 2.933594-1.484375 2.851563-3.140625l-7.203125-149.765625c-.601563-12.527344 5.628906-24.4375 16.261719-31.085938l17.210937-10.765625c11.96875-7.488281 19.117187-20.386718 19.117187-34.507812v-28.203125c0-4.085938-1.613281-7.902344-4.546874-10.75zm0 0" fill="#3a312a"></path><path d="m15.441406 125.242188h-.160156c-6.570312 0-11.898438 5.328124-11.898438 11.902343v40.910157c0 6.574218 5.328126 11.902343 11.898438 11.902343h.160156c6.570313 0 11.898438-5.328125 11.898438-11.902343v-40.910157c0-6.574219-5.328125-11.902343-11.898438-11.902343zm0 0" fill="#fce8cb"></path><path d="m15.285156 122.242188c-8.214844 0-14.898437 6.6875-14.898437 14.902343v1.414063c0 1.65625 1.339843 3 3 3 1.65625 0 3-1.34375 3-3v-1.414063c0-4.910156 3.992187-8.902343 9.054687-8.902343 4.90625 0 8.898438 3.992187 8.898438 8.902343v40.910157c0 4.910156-3.992188 8.902343-9.054688 8.902343-4.90625 0-8.898437-3.992187-8.898437-8.902343v-12.410157c0-1.65625-1.34375-3-3-3-1.660157 0-3 1.34375-3 3v12.410157c0 8.21875 6.683593 14.902343 15.054687 14.902343 8.214844 0 14.898438-6.683593 14.898438-14.902343v-40.910157c0-8.214843-6.683594-14.902343-15.054688-14.902343zm0 0" fill="#3a312a"></path><path d="m39.398438 125.242188h-.160157c-6.570312 0-11.898437 5.328124-11.898437 11.902343v40.910157c0 6.574218 5.328125 11.902343 11.898437 11.902343h.160157c6.570312 0 11.898437-5.328125 11.898437-11.902343v-40.910157c0-6.574219-5.328125-11.902343-11.898437-11.902343zm0 0" fill="#fce8cb"></path><path d="m39.238281 122.242188c-8.214843 0-14.898437 6.6875-14.898437 14.902343v40.910157c0 8.21875 6.683594 14.902343 14.898437 14.902343h.160157c8.214843 0 14.898437-6.683593 14.898437-14.902343v-40.910157c0-8.214843-6.683594-14.902343-15.058594-14.902343zm9.058594 55.8125c0 4.910156-3.992187 8.902343-8.898437 8.902343h-.160157c-4.90625 0-8.898437-3.992187-8.898437-8.902343v-40.910157c0-4.910156 3.992187-8.902343 9.058594-8.902343 4.90625 0 8.898437 3.992187 8.898437 8.902343zm0 0" fill="#3a312a"></path><path d="m63.351562 125.242188h-.15625c-6.574218 0-11.898437 5.328124-11.898437 11.902343v40.910157c0 6.574218 5.324219 11.902343 11.898437 11.902343h.15625c6.574219 0 11.898438-5.328125 11.898438-11.902343v-40.910157c.003906-6.574219-5.324219-11.902343-11.898438-11.902343zm0 0" fill="#fce8cb"></path><path d="m63.195312 122.242188c-8.214843 0-14.898437 6.6875-14.898437 14.902343v40.910157c0 8.21875 6.683594 14.902343 14.898437 14.902343h.15625c8.21875 0 14.902344-6.683593 14.902344-14.902343v-40.910157c0-8.214843-6.683594-14.902343-15.058594-14.902343zm9.058594 55.8125c0 4.910156-3.992187 8.902343-8.902344 8.902343h-.15625c-4.90625 0-8.898437-3.992187-8.898437-8.902343v-40.910157c0-4.910156 3.992187-8.902343 9.054687-8.902343 4.910157 0 8.902344 3.992187 8.902344 8.902343zm0 0" fill="#3a312a"></path><path d="m87.308594 125.242188h-.15625c-6.574219 0-11.898438 5.328124-11.898438 11.902343v40.910157c0 6.574218 5.328125 11.902343 11.898438 11.902343h.15625c6.574218 0 11.898437-5.328125 11.898437-11.902343v-40.910157c.003907-6.574219-5.324219-11.902343-11.898437-11.902343zm0 0" fill="#fce8cb"></path><path d="m87.152344 122.242188c-8.21875 0-14.902344 6.6875-14.902344 14.902343v40.910157c0 8.21875 6.683594 14.902343 14.902344 14.902343h.15625c8.214844 0 14.902344-6.683593 14.902344-14.902343v-40.910157c0-8.214843-6.6875-14.902343-15.058594-14.902343zm9.058594 55.8125c0 4.910156-3.992188 8.902343-8.902344 8.902343h-.15625c-4.910156 0-8.902344-3.992187-8.902344-8.902343v-40.910157c0-4.910156 3.992188-8.902343 9.058594-8.902343 4.90625 0 8.898437 3.992187 8.898437 8.902343v40.910157zm0 0" fill="#3a312a"></path><path d="m233.320312 49.570312-3.6875 16.832032 124.847657 24.085937 1.167969-5.875zm0 0" fill="#8ac6dd" fill-rule="evenodd"></path><path d="m356.472656 81.730469-122.328125-35.042969c-.796875-.230469-1.652343-.121094-2.363281.304688-.710938.425781-1.214844 1.128906-1.390625 1.9375l-3.691406 16.832031c-.175781.789062-.023438 1.617187.421875 2.292969.449218.675781 1.144531 1.144531 1.941406 1.296874l124.847656 24.082032c.191406.035156.382813.054687.574219.054687 1.402344 0 2.65625-.992187 2.9375-2.417969l1.167969-5.871093c.300781-1.53125-.617188-3.039063-2.117188-3.46875zm-4.355468 5.246093-118.894532-22.933593 2.34375-10.707031 116.601563 33.402343zm0 0" fill="#3a312a"></path><path d="m203.910156 46.066406c-1.921875 3.902344-5.0625 7-8.859375 8.882813l35.398438 7.757812 2.261719-10.320312zm0 0" fill="#8ac6dd" fill-rule="evenodd"></path><path d="m233.351562 49.457031-28.796874-6.320312c-1.351563-.292969-2.726563.371093-3.335938 1.605469-1.597656 3.246093-4.257812 5.914062-7.5 7.519531-1.140625.5625-1.800781 1.789062-1.648438 3.050781.15625 1.261719 1.089844 2.292969 2.335938 2.566406l35.402344 7.757813c.210937.046875.425781.070312.640625.070312.566406 0 1.128906-.160156 1.621093-.472656.667969-.429687 1.140626-1.109375 1.308594-1.882813l2.261719-10.320312c.351563-1.621094-.671875-3.21875-2.289063-3.574219zm-5.191406 9.675781-25.929687-5.683593c1.210937-1.199219 2.289062-2.535157 3.203125-3.976563l23.703125 5.203125zm0 0" fill="#3a312a"></path><path d="m190.253906 18.011719c-10.65625-2.203125-21.085937 4.648437-23.289062 15.308593-2.207032 10.660157 4.648437 21.085938 15.308594 23.292969 10.660156 2.203125 21.085937-4.648437 23.289062-15.308593 2.203125-10.660157-4.648438-21.089844-15.308594-23.292969zm6.402344 21.449219c-1.1875 5.738281-6.800781 9.429687-12.542969 8.242187-5.738281-1.1875-9.429687-6.800781-8.242187-12.542969 1.1875-5.738281 6.800781-9.429687 12.542968-8.242187 5.738282 1.1875 9.429688 6.800781 8.242188 12.542969zm0 0" fill="#8ac6dd" fill-rule="evenodd"></path><path d="m189.019531 23.980469c-7.34375-1.523438-14.566406 3.222656-16.089843 10.574219-1.519532 7.347656 3.226562 14.566406 10.574218 16.085937.925782.195313 1.847656.285156 2.757813.285156 6.320312 0 12-4.433593 13.332031-10.859375 1.519531-7.347656-3.222656-14.5625-10.574219-16.085937zm4.699219 14.871093c-.851562 4.113282-4.882812 6.757813-8.996094 5.917969-4.113281-.851562-6.765625-4.886719-5.914062-9 .742187-3.589843 3.917968-6.070312 7.453125-6.070312.507812 0 1.023437.050781 1.542969.15625 4.109374.851562 6.765624 4.886719 5.914062 8.996093zm-2.859375-23.777343c-5.941406-1.230469-12.003906-.070313-17.070313 3.261719-5.066406 3.332031-8.539062 8.4375-9.765624 14.378906-1.226563 5.9375-.070313 12 3.261718 17.070312 3.332032 5.070313 8.4375 8.539063 14.378906 9.765625 1.546876.320313 3.085938.472657 4.601563.472657 10.539063 0 20.015625-7.394532 22.234375-18.113282 2.535156-12.261718-5.378906-24.300781-17.640625-26.835937zm11.769531 25.621093c-1.867187 9.023438-10.726562 14.847657-19.75 12.980469-9.023437-1.867187-14.84375-10.726562-12.976562-19.746093 1.628906-7.886719 8.601562-13.328126 16.355468-13.328126 1.121094 0 2.253907.113282 3.390626.347657 9.019531 1.863281 14.839843 10.726562 12.980468 19.746093zm0 0" fill="#3a312a"></path><path d="m355.617188 39.277344-52.285157 10.003906-20.414062 3.90625-52.183594 9.984375 3.664063 16.839844 122.378906-34.859375zm0 0" fill="#8ac6dd" fill-rule="evenodd"></path><path d="m359.71875 44.570312-1.15625-5.875c-.320312-1.621093-1.878906-2.679687-3.507812-2.367187l-52.285157 10.007813c-1.628906.308593-2.695312 1.878906-2.382812 3.507812.308593 1.628906 1.875 2.699219 3.511719 2.382812l49.355468-9.445312.046875.242188-116.652343 33.230468-2.328126-10.710937 49.164063-9.410157c1.625-.3125 2.691406-1.878906 2.378906-3.507812-.308593-1.628906-1.882812-2.699219-3.511719-2.382812l-52.183593 9.984374c-.792969.152344-1.492188.621094-1.941407 1.292969-.445312.675781-.597656 1.5-.425781 2.292969l3.664063 16.839844c.175781.808594.679687 1.507812 1.386718 1.9375.472657.28125 1.003907.425781 1.542969.425781.273438 0 .550781-.039063.820313-.117187l122.378906-34.859376c1.503906-.429687 2.429688-1.933593 2.125-3.46875zm0 0" fill="#3a312a"></path><path d="m231.550781 66.867188-35.441406 7.699218c3.800781 1.882813 6.960937 4.980469 8.878906 8.882813l28.800781-6.261719zm0 0" fill="#8ac6dd" fill-rule="evenodd"></path><path d="m236.71875 76.550781-2.238281-10.320312c-.167969-.777344-.640625-1.457031-1.308594-1.886719-.671875-.429688-1.484375-.578125-2.261719-.40625l-35.4375 7.699219c-1.246094.269531-2.1875 1.296875-2.339844 2.5625-.15625 1.265625.503907 2.492187 1.644532 3.058593 3.257812 1.609376 5.925781 4.277344 7.523437 7.515626.511719 1.039062 1.5625 1.671874 2.691407 1.671874.210937 0 .421874-.019531.636718-.066406l28.796875-6.261718c1.621094-.347657 2.644531-1.945313 2.292969-3.566407zm-30.203125 3.496094c-.914063-1.441406-1.992187-2.773437-3.203125-3.976563l25.941406-5.632812.964844 4.457031zm0 0" fill="#3a312a"></path><path d="m206.628906 88.238281c-2.1875-10.664062-12.605468-17.53125-23.269531-15.34375-10.660156 2.1875-17.53125 12.601563-15.34375 23.265625 2.1875 10.664063 12.605469 17.535156 23.269531 15.347656 10.660156-2.191406 17.53125-12.609374 15.34375-23.269531zm-17.175781 14.359375c-5.738281 1.175782-11.351563-2.523437-12.527344-8.265625-1.179687-5.742187 2.519531-11.351562 8.261719-12.53125 5.742188-1.175781 11.351562 2.523438 12.53125 8.265625 1.179688 5.742188-2.523438 11.351563-8.265625 12.53125zm0 0" fill="#8ac6dd" fill-rule="evenodd"></path><path d="m209.566406 87.632812c-1.21875-5.941406-4.679687-11.054687-9.742187-14.394531-5.0625-3.339843-11.128907-4.507812-17.066407-3.285156-5.941406 1.21875-11.054687 4.679687-14.394531 9.742187-3.339843 5.066407-4.503906 11.125-3.285156 17.070313 2.203125 10.730469 11.683594 18.144531 22.238281 18.144531 1.507813 0 3.039063-.152344 4.574219-.464844 5.941406-1.21875 11.050781-4.679687 14.390625-9.746093 3.335938-5.0625 4.503906-11.125 3.285156-17.066407zm-8.296875 13.765626c-2.457031 3.726562-6.214843 6.273437-10.589843 7.167968-4.367188.898438-8.828126.039063-12.554688-2.417968-3.726562-2.457032-6.273438-6.21875-7.171875-10.589844-.894531-4.371094-.035156-8.832032 2.421875-12.554688 2.457031-3.726562 6.21875-6.273437 10.589844-7.171875 1.128906-.230469 2.265625-.347656 3.390625-.347656 3.238281 0 6.402343.945313 9.167969 2.765625 3.726562 2.457031 6.273437 6.21875 7.167968 10.589844.894532 4.371094.035156 8.832031-2.421875 12.558594zm-16.683593-22.535157c-7.351563 1.507813-12.109376 8.71875-10.597657 16.074219.730469 3.558594 2.804688 6.625 5.839844 8.625 2.25 1.484375 4.832031 2.25 7.464844 2.25.917969 0 1.84375-.089844 2.765625-.28125 7.351562-1.507812 12.105468-8.71875 10.597656-16.070312-1.507812-7.351563-8.71875-12.109376-16.070312-10.597657zm4.265624 20.792969c-1.992187.410156-4.023437.019531-5.71875-1.101562-1.699218-1.117188-2.859374-2.832032-3.269531-4.824219-.84375-4.113281 1.816407-8.144531 5.925781-8.988281 4.113282-.839844 8.144532 1.816406 8.992188 5.929687.84375 4.109375-1.816406 8.140625-5.929688 8.984375zm0 0" fill="#3a312a"></path><path d="m153.941406 3h-.160156c-6.570312 0-11.898438 5.328125-11.898438 11.898438v40.914062c0 6.570312 5.328126 11.898438 11.898438 11.898438h.160156c6.570313 0 11.898438-5.328126 11.898438-11.898438v-40.914062c0-6.570313-5.328125-11.898438-11.898438-11.898438zm0 0" fill="#fce8cb"></path><path d="m153.785156 0c-8.214844 0-14.898437 6.683594-14.898437 14.898438v40.914062c0 8.214844 6.683593 14.898438 14.898437 14.898438h.15625c8.21875 0 14.902344-6.683594 14.902344-14.898438v-40.914062c-.003906-8.214844-6.6875-14.898438-15.058594-14.898438zm9.054688 55.8125c0 4.90625-3.992188 8.898438-8.898438 8.898438h-.160156c-4.90625 0-8.898438-3.992188-8.898438-8.898438v-40.914062c0-4.90625 3.992188-8.898438 9.054688-8.898438 4.910156 0 8.902344 3.992188 8.902344 8.898438zm0 0" fill="#3a312a"></path><path d="m177.898438 3h-.160157c-6.570312 0-11.898437 5.328125-11.898437 11.898438v40.914062c0 6.570312 5.328125 11.898438 11.898437 11.898438h.160157c6.570312 0 11.898437-5.328126 11.898437-11.898438v-40.914062c0-6.570313-5.328125-11.898438-11.898437-11.898438zm0 0" fill="#fce8cb"></path><path d="m177.738281 0c-8.214843 0-14.898437 6.683594-14.898437 14.898438v40.914062c0 8.214844 6.683594 14.898438 14.898437 14.898438h.160157c8.214843 0 14.898437-6.683594 14.898437-14.898438v-40.914062c0-8.214844-6.683594-14.898438-15.058594-14.898438zm9.058594 55.8125c0 4.90625-3.992187 8.898438-8.898437 8.898438h-.160157c-4.90625 0-8.898437-3.992188-8.898437-8.898438v-40.914062c0-4.90625 3.992187-8.898438 9.058594-8.898438 4.90625 0 8.898437 3.992188 8.898437 8.898438zm0 0" fill="#3a312a"></path><path d="m201.851562 3h-.15625c-6.574218 0-11.898437 5.328125-11.898437 11.898438v40.914062c0 6.570312 5.324219 11.898438 11.898437 11.898438h.15625c6.574219 0 11.898438-5.328126 11.898438-11.898438v-40.914062c.003906-6.570313-5.324219-11.898438-11.898438-11.898438zm0 0" fill="#fce8cb"></path><path d="m201.695312 0c-8.214843 0-14.898437 6.683594-14.898437 14.898438v40.914062c0 8.214844 6.683594 14.898438 14.898437 14.898438h.15625c8.21875 0 14.902344-6.683594 14.902344-14.898438v-40.914062c0-8.214844-6.683594-14.898438-15.058594-14.898438zm9.058594 55.8125c0 4.90625-3.992187 8.898438-8.902344 8.898438h-.15625c-4.90625 0-8.898437-3.992188-8.898437-8.898438v-40.914062c0-4.90625 3.992187-8.898438 9.054687-8.898438 4.910157 0 8.902344 3.992188 8.902344 8.898438zm0 0" fill="#3a312a"></path><path d="m225.808594 3h-.15625c-6.574219 0-11.898438 5.328125-11.898438 11.898438v40.914062c0 6.570312 5.328125 11.898438 11.898438 11.898438h.15625c6.574218 0 11.898437-5.328126 11.898437-11.898438v-40.914062c.003907-6.570313-5.324219-11.898438-11.898437-11.898438zm0 0" fill="#fce8cb"></path><path d="m225.652344 0c-8.214844 0-14.898438 6.683594-14.898438 14.898438v40.914062c0 8.214844 6.683594 14.898438 14.898438 14.898438h.15625c8.214844 0 14.898437-6.683594 14.898437-14.898438v-40.914062c.003907-8.214844-6.683593-14.898438-15.054687-14.898438zm9.058594 55.8125c0 4.90625-3.992188 8.898438-8.898438 8.898438h-.160156c-4.90625 0-8.898438-3.992188-8.898438-8.898438v-40.914062c0-4.90625 3.992188-8.898438 9.058594-8.898438 4.90625 0 8.898438 3.992188 8.898438 8.898438zm0 0" fill="#3a312a"></path><path d="m89.453125 22.851562c-1.949219 23.128907-26.046875 26.78125-26.046875 26.78125 20.691406.972657 25.847656 28.117188 25.847656 28.117188.441406-19.355469 26.644532-28.402344 26.644532-28.402344-19.628907-1.175781-26.445313-26.496094-26.445313-26.496094zm0 0" fill="#d7e057"></path><path d="m116.078125 46.347656c-17.210937-1.027344-23.664063-24.046875-23.730469-24.28125-.378906-1.40625-1.730468-2.335937-3.164062-2.203125-1.449219.132813-2.597656 1.285157-2.71875 2.734375-1.71875 20.429688-22.625 23.929688-23.507813 24.066406-1.527343.230469-2.625 1.578126-2.546875 3.121094.082032 1.539063 1.316406 2.769532 2.855469 2.84375 18.058594.847656 23 25.433594 23.046875 25.683594.273438 1.421875 1.519531 2.433594 2.945312 2.433594.082032 0 .167969-.003906.25-.011719 1.527344-.125 2.714844-1.382813 2.75-2.917969.390626-17.015625 24.386719-25.550781 24.628907-25.636718 1.347656-.46875 2.183593-1.828126 1.984375-3.246094-.199219-1.417969-1.367188-2.5-2.792969-2.585938zm-27.132813 20.695313c-2.710937-6.261719-7.417968-13.816407-15.175781-17.753907 5.863281-2.808593 12.820313-7.824218 16.40625-16.546874 3.101563 6.144531 8.398438 13.761718 16.667969 17.445312-6.015625 3.28125-13.847656 8.8125-17.898438 16.855469zm0 0" fill="#3a312a"></path><path d="m46.058594 56.8125c-1.378906 16.359375-18.425782 18.941406-18.425782 18.941406 14.636719.6875 18.285157 19.886719 18.285157 19.886719.3125-13.6875 18.84375-20.089844 18.84375-20.089844-13.882813-.828125-18.703125-18.738281-18.703125-18.738281zm0 0" fill="#d7e057"></path><path d="m64.9375 72.554688c-11.53125-.6875-15.945312-16.371094-15.988281-16.527344-.378907-1.40625-1.699219-2.335938-3.164063-2.207032-1.449218.132813-2.597656 1.289063-2.71875 2.738282-1.15625 13.742187-15.292968 16.132812-15.882812 16.226562-1.527344.230469-2.625 1.582032-2.546875 3.121094.082031 1.542969 1.3125 2.769531 2.855469 2.84375 12.070312.566406 15.445312 17.289062 15.476562 17.449219.269531 1.425781 1.519531 2.441406 2.945312 2.441406.082032 0 .164063-.003906.25-.011719 1.527344-.125 2.714844-1.386718 2.75-2.921875.261719-11.417969 16.664063-17.265625 16.828126-17.320312 1.351562-.46875 2.1875-1.828125 1.992187-3.246094-.199219-1.414063-1.367187-2.5-2.796875-2.585937zm-19.167969 13.589843c-1.847656-3.769531-4.679687-7.890625-8.894531-10.558593 3.710938-2.082032 7.394531-5.257813 9.742188-9.832032 2.113281 3.75 5.308593 7.90625 9.882812 10.449219-3.699219 2.199219-7.980469 5.480469-10.730469 9.941406zm0 0" fill="#3a312a"></path><path d="m46.058594 3.496094c-1.378906 16.359375-18.425782 18.941406-18.425782 18.941406 14.636719.6875 18.285157 19.886719 18.285157 19.886719.3125-13.6875 18.84375-20.089844 18.84375-20.089844-13.882813-.828125-18.703125-18.738281-18.703125-18.738281zm0 0" fill="#d7e057"></path><path d="m64.9375 19.242188c-11.476562-.6875-15.902344-16.222657-15.988281-16.527344-.378907-1.40625-1.710938-2.339844-3.164063-2.203125-1.453125.128906-2.597656 1.285156-2.71875 2.734375-1.160156 13.742187-15.292968 16.132812-15.886718 16.226562-1.523438.230469-2.625 1.578125-2.542969 3.121094.078125 1.539062 1.3125 2.769531 2.851562 2.84375 12.074219.566406 15.449219 17.285156 15.480469 17.449219.269531 1.425781 1.515625 2.441406 2.941406 2.441406.085938 0 .167969-.003906.25-.011719 1.53125-.125 2.71875-1.386718 2.753906-2.921875.257813-11.417969 16.664063-17.265625 16.824219-17.324219 1.355469-.464843 2.1875-1.824218 1.992188-3.242187-.195313-1.417969-1.363281-2.5-2.792969-2.585937zm-19.167969 13.589843c-1.847656-3.773437-4.679687-7.894531-8.894531-10.558593 3.710938-2.082032 7.394531-5.261719 9.742188-9.832032 2.113281 3.746094 5.308593 7.90625 9.882812 10.445313-3.699219 2.203125-7.980469 5.480469-10.730469 9.945312zm0 0" fill="#3a312a"></path><g fill="#ccae8b"><path d="m238.367188 81.988281c-2.5 3.398438-5.679688 6.339844-9.398438 8.679688l-17.21875 10.761719c-12.460938 7.796874-19.78125 21.777343-19.0625 36.476562l12.882812 270.804688h13.398438l-12.878906-270.804688c-.722656-14.699219 6.597656-28.679688 19.058594-36.476562l17.21875-10.761719c5.34375-3.339844 9.542968-7.960938 12.363281-13.320313zm0 0"></path><path d="m255.929688 26.609375c-1.742188-1.703125-4.082032-2.582031-6.519532-2.542969-2.5.082032-4.761718 1.28125-6.320312 3.121094 1.398437 1.621094 2.179687 3.679688 2.179687 5.859375v16.820313l13.398438 3.839843v-20.660156c0-2.4375-.980469-4.738281-2.738281-6.4375zm0 0"></path><path d="m383.589844 148.847656c-1.761719-1.699218-4.101563-2.578125-6.539063-2.519531-2.480469.078125-4.742187 1.261719-6.320312 3.101563 1.417969 1.617187 2.179687 3.679687 2.179687 5.859374v28.199219c0 12.039063-6.101562 23.039063-16.300781 29.441407l-17.199219 10.757812c-12.480468 7.800781-19.78125 21.761719-19.082031 36.460938l7.0625 149.621093h13.398437l-7.058593-149.621093c-.703125-14.699219 6.597656-28.660157 19.078125-36.460938l17.199218-10.757812c10.203126-6.402344 16.300782-17.402344 16.300782-29.441407v-28.199219c0-2.441406-.960938-4.742187-2.71875-6.441406zm0 0"></path><path d="m117.429688 148.847656c-1.742188-1.699218-4.082032-2.578125-6.519532-2.519531-2.5.078125-4.761718 1.261719-6.339844 3.101563 1.417969 1.617187 2.199219 3.679687 2.199219 5.859374v28.199219c0 12.039063-6.101562 23.039063-16.300781 29.441407l-17.21875 10.757812c-12.460938 7.800781-19.78125 21.761719-19.0625 36.460938l7.042969 149.621093h13.398437l-7.039062-149.621093c-.722656-14.699219 6.597656-28.660157 19.058594-36.460938l17.21875-10.757812c10.203124-6.402344 16.300781-17.402344 16.300781-29.441407v-28.199219c0-2.441406-.980469-4.742187-2.738281-6.441406zm0 0"></path></g></svg>